<?xml version="1.0" encoding="UTF-8" standalone="no"?>
<svg
   width="48"
   height="48"
   viewBox="0 0 48 48"
   version="1.1"
   id="svg29"
   sodipodi:docname="ic_launcher_safe.svg"
   inkscape:version="1.4.3 (0d15f75, 2025-12-25)"
   xmlns:inkscape="http://www.inkscape.org/namespaces/inkscape"
   xmlns:sodipodi="http://sodipodi.sourceforge.net/DTD/sodipodi-0.dtd"
   xmlns="http://www.w3.org/2000/svg"
   xmlns:svg="http://www.w3.org/2000/svg">
  <sodipodi:namedview
     id="namedview29"
     pagecolor="#505050"
     bordercolor="#ffffff"
     borderopacity="1"
     inkscape:showpageshadow="0"
     inkscape:pageopacity="0"
     inkscape:pagecheckerboard="1"
     inkscape:deskcolor="#d1d1d1"
     showgrid="false"
     inkscape:zoom="18.6875"
     inkscape:cx="24"
     inkscape:cy="24"
     inkscape:window-width="1920"
     inkscape:window-height="1178"
     inkscape:window-x="-6"
     inkscape:window-y="-6"
     inkscape:window-maximized="1"
     inkscape:current-layer="svg29" />
  <defs
     id="defs19">
    <!-- Shackle gradient -->
    <linearGradient
       id="shackle_grad"
       x1="14.5"
       y1="22"
       x2="25.5"
       y2="6.4"
       gradientUnits="userSpaceOnUse"
       gradientTransform="matrix(0.9984808,0,0,0.98520782,-0.15690699,-1.5290815)">
      <stop
         offset="0%"
         stop-color="#78909C"
         id="stop1" />
      <stop
         offset="30%"
         stop-color="#B0BEC5"
         id="stop2" />
      <stop
         offset="60%"
         stop-color="#ECEFF1"
         id="stop3" />
      <stop
         offset="80%"
         stop-color="#90CAF9"
         id="stop4" />
      <stop
         offset="100%"
         stop-color="#64B5F6"
         id="stop5" />
    </linearGradient>
    <!-- Padlock Cylinder Body gradient -->
    <linearGradient
       id="body_grad"
       x1="8"
       y1="30.5"
       x2="32"
       y2="30.5"
       gradientUnits="userSpaceOnUse">
      <stop
         offset="0%"
         stop-color="#B57C00"
         id="stop6" />
      <stop
         offset="20%"
         stop-color="#FFCA28"
         id="stop7" />
      <stop
         offset="50%"
         stop-color="#FFD54F"
         id="stop8" />
      <stop
         offset="80%"
         stop-color="#FFB300"
         id="stop9" />
      <stop
         offset="100%"
         stop-color="#B57C00"
         id="stop10" />
    </linearGradient>
    <!-- Padlock Cylinder Top Surface gradient -->
    <linearGradient
       id="top_grad"
       x1="20"
       y1="19.5"
       x2="20"
       y2="24.5"
       gradientUnits="userSpaceOnUse">
      <stop
         offset="0%"
         stop-color="#FFE082"
         id="stop11" />
      <stop
         offset="100%"
         stop-color="#FFCA28"
         id="stop12" />
    </linearGradient>
    <!-- Key Head gradient -->
    <linearGradient
       id="key_head_grad"
       x1="26"
       y1="10.5"
       x2="38"
       y2="22.5"
       gradientUnits="userSpaceOnUse">
      <stop
         offset="0%"
         stop-color="#FFF59D"
         id="stop13" />
      <stop
         offset="25%"
         stop-color="#FFD54F"
         id="stop14" />
      <stop
         offset="65%"
         stop-color="#FFC107"
         id="stop15" />
      <stop
         offset="100%"
         stop-color="#FF8F00"
         id="stop16" />
    </linearGradient>
    <!-- Key Shaft/Teeth gradient -->
    <linearGradient
       id="key_shaft_grad"
       x1="30.5"
       y1="28.75"
       x2="36.3"
       y2="28.75"
       gradientUnits="userSpaceOnUse"
       gradientTransform="translate(-0.05351171,-0.42809365)">
      <stop
         offset="0%"
         stop-color="#FFE082"
         id="stop17" />
      <stop
         offset="50%"
         stop-color="#FFC107"
         id="stop18" />
      <stop
         offset="100%"
         stop-color="#FF8F00"
         id="stop19" />
    </linearGradient>
  </defs>
  <path
     fill="url(#body_grad)"
     d="m 8,22 v 17 c 0,1.4 5.4,2.5 12,2.5 6.6,0 12,-1.1 12,-2.5 V 22 c 0,1.4 -5.4,2.5 -12,2.5 C 13.4,24.5 8,23.4 8,22 Z"
     id="path21"
     style="fill:url(#body_grad)" />
  <path
     fill="url(#top_grad)"
     d="m 20,24.5 c 6.6,0 12,-1.1 12,-2.5 0,-1.4 -5.4,-2.5 -12,-2.5 -6.6,0 -12,1.1 -12,2.5 0,1.4 5.4,2.5 12,2.5 z"
     id="path22"
     style="fill:url(#top_grad)" />
  <path
     fill="none"
     stroke="#fff9c4"
     stroke-width="0.5"
     d="m 8.5,22 c 0,1.2 5.1,2 11.5,2 6.4,0 11.5,-0.8 11.5,-2"
     id="path23" />
  <path
     fill="#1e120c"
     d="m 20,27.5 c -0.8,0 -1.5,0.7 -1.5,1.5 0,0.6 0.4,1.1 0.9,1.3 l -0.9,4.2 h 3 l -0.9,-4.2 c 0.5,-0.2 0.9,-0.7 0.9,-1.3 0,-0.8 -0.7,-1.5 -1.5,-1.5 z"
     id="path24" />
  <path
     fill="none"
     stroke="#fff59d"
     stroke-width="0.4"
     d="m 18.5,34.5 h 3"
     id="path25" />
  <path
     fill="url(#key_shaft_grad)"
     d="m 30.446488,22.071906 h 3 v 2.5 h 2.8 v 3 h -2.8 v 1 h 2.2 v 3 h -2.2 v 3 h -3 z"
     id="path27"
     style="fill:url(#key_shaft_grad)" />
  <path
     fill="none"
     stroke="#fff9c4"
     stroke-width="0.5"
     d="m 31,22.5 v 12"
     id="path28" />
  <path
     fill="none"
     stroke="url(#shackle_grad)"
     stroke-width="4.4632"
     stroke-linecap="round"
     d="m 14.321065,20.14549 v -9.852078 c 0,-3.0541438 2.496202,-5.5171634 5.491644,-5.5171634 2.995443,0 5.491645,2.4630196 5.491645,5.5171634 v 9.852078"
     id="path19"
     style="stroke:url(#shackle_grad)" />
  <path
     fill="url(#key_head_grad)"
     d="m 32,10.5 c -3.3,0 -6,2.7 -6,6 0,3.3 2.7,6 6,6 3.3,0 6,-2.7 6,-6 0,-3.3 -2.7,-6 -6,-6 z m 0,3.3 c 1.5,0 2.7,1.2 2.7,2.7 0,1.5 -1.2,2.7 -2.7,2.7 -1.5,0 -2.7,-1.2 -2.7,-2.7 0,-1.5 1.2,-2.7 2.7,-2.7 z"
     id="path26"
     style="fill:url(#key_head_grad)" />
  <path
     fill="none"
     stroke="#ffffff"
     stroke-width="1.02414"
     stroke-linecap="round"
     d="M 14.708266,12.115019 A 4.2113458,5.0433063 48.581056 0 1 20.532434,5.4791829"
     id="path20"
     inkscape:transform-center-x="-0.04120906"
     inkscape:transform-center-y="0.0005209829" />
  <path
     fill="none"
     stroke="#ffffff"
     stroke-width="0.8"
     stroke-linecap="round"
     d="m 27.553512,14.446488 a 4.5,4.5 0 0 1 5,-3"
     id="path29" />
</svg>
