<?xml version="1.0" encoding="UTF-8" standalone="no"?><!-- Created with Inkscape (http://www.inkscape.org/) -->

<svg height="196.30568" id="svg5" version="1.1" viewBox="0 0 45.764152 51.939211" width="172.96687"
    xmlns="http://www.w3.org/2000/svg">
    <defs id="defs2" />
    <g id="layer1" transform="translate(-63.858618,-110.16722)">
        <path style="fill:#e9e9ff;fill-rule:evenodd;stroke:none;stroke-linejoin:round"
            d="m 93.728166,113.20029 15.894494,-1.15024 v 45.10348 l -15.894494,-2.68257 z"
            id="path6303" />
        <path style="fill:#353564;fill-rule:evenodd;stroke:none;stroke-linejoin:round"
            d="m 63.858618,111.65685 v 46.9212 l 29.869548,-4.10709 v -41.27067 z"
            id="path6305" />
        <path style="fill:#afafde;fill-rule:evenodd;stroke:none;stroke-linejoin:round"
            d="m 63.858618,158.57805 15.108998,3.52838 30.655044,-4.9529 -15.894494,-2.68257 z"
            id="path6307" />
        <path style="fill:#4d4d9f;fill-rule:evenodd;stroke:none;stroke-linejoin:round"
            d="m 63.858618,111.65685 15.108998,-1.48963 30.655044,1.88283 -15.894494,1.15024 z"
            id="path6309" />
        <path style="fill:#d7d7ff;fill-rule:evenodd;stroke:none;stroke-linejoin:round" d="m 78.96779,110.16744 v 51.93894 l 30.65498,-4.95266 v -45.10371 z m 5.202783,26.91412 1.159619,0.0894 v 2.14095 l -1.159619,0.23513 z"
            id="path6311" />
        <path style="fill:#8686bf;fill-rule:evenodd;stroke:none;stroke-linejoin:round"
            d="m 63.858618,111.65685 15.108998,-1.48963 v 51.93921 l -15.108998,-3.52838 z"
            id="path6313" />
        <path style="fill:#e9e9ff;fill-rule:evenodd;stroke:none;stroke-linejoin:round"
            d="m 89.791732,133.34717 1.400294,0.065 v 1.98772 l -1.400294,-0.0815 z"
            id="path4931" />
        <path style="fill:#353564;fill-rule:evenodd;stroke:none;stroke-linejoin:round"
            d="m 83.648335,133.59262 v 2.02574 l 6.143397,-0.29998 v -1.97121 z"
            id="path4933" />
        <path style="fill:#afafde;fill-rule:evenodd;stroke:none;stroke-linejoin:round"
            d="m 83.648335,135.61836 1.386478,0.0864 6.157213,-0.30484 -1.400294,-0.0815 z"
            id="path4935" />
        <path style="fill:#2f2f60;fill-opacity:1;fill-rule:evenodd;stroke:none;stroke-linejoin:round"
            d="m 83.648335,133.59262 1.386478,0.0689 6.157213,-0.24939 -1.400294,-0.065 z"
            id="path4937" />
        <path style="fill:#6262ff;fill-opacity:1;fill-rule:evenodd;stroke:none;stroke-linejoin:round"
            d="m 85.034813,133.66155 v 2.04317 l 6.157213,-0.30484 v -1.98772 z"
            id="path4939" />
        <path style="fill:#7878b8;fill-opacity:1;fill-rule:evenodd;stroke:none;stroke-linejoin:round"
            d="m 83.648335,133.59262 1.386478,0.0689 v 2.04317 l -1.386478,-0.0864 z"
            id="path4941" />
    </g>
</svg>
