<?xml version="1.0" encoding="UTF-8" standalone="no"?><!-- Created with Inkscape (http://www.inkscape.org/) -->

<svg height="54.4174mm" id="svg5" version="1.1" viewBox="0 0 128.27606 54.4174" width="128.27606mm"
    xmlns="http://www.w3.org/2000/svg">
    <defs id="defs2" />
    <g id="layer1" transform="translate(-49.111321,-91.78023)">
        <path style="fill:#1a1a1a;stroke-width:0.264583"
            d="m 75.076834,91.791145 c -8.480101,0.23893 -16.990014,4.40606 -21.719467,11.565665 -4.497929,6.5788 -4.81116,15.77608 -0.623112,22.58407 4.14261,7.03365 11.907735,11.51466 19.939262,12.38833 8.589799,1.00401 17.770917,-1.86542 23.720299,-8.26864 0.919609,-0.98097 1.745576,-2.04696 2.507237,-3.15419 1.524737,0 3.049477,0 4.574217,0 1.81103,-1.80942 3.62243,-3.61846 5.4336,-5.42774 1.82647,1.82587 3.65578,3.64891 5.48046,5.47657 1.65089,-0.24287 3.59761,0.41219 4.97308,-0.82655 1.76028,-1.75899 3.52055,-3.51798 5.28083,-5.27697 2.01951,2.01825 4.03916,4.03636 6.05859,6.05469 2.87956,0 5.75912,0 8.63867,0 1.18416,-1.17911 2.36427,-2.3623 3.54688,-3.54297 1.18162,1.181 2.36337,2.36189 3.54492,3.54297 2.88021,0 5.76041,0 8.64062,0 2.12551,-2.12385 4.25133,-4.24737 6.37696,-6.3711 2.12562,2.12373 4.25144,4.24725 6.37695,6.3711 3.18685,0 6.3737,0 9.56055,0 0,-7.94206 0,-15.88412 0,-23.82617 -26.2194,0 -52.4388,0 -78.658202,0 C 93.985871,96.238445 85.819862,92.130305 77.56145,91.817785 c -0.827225,-0.0458 -1.656533,-0.0431 -2.484616,-0.0266 z m 0.8125,10.894525 c 3.255813,-0.0236 6.437345,1.42594 8.647563,3.722 3.577821,3.60359 4.352537,9.54299 2.192643,14.01151 -1.986691,4.23369 -6.591336,7.11983 -11.289574,6.86277 -3.372009,-0.16631 -6.451603,-1.74629 -8.589694,-4.32284 -2.663948,-3.09612 -3.51759,-7.65389 -2.355469,-11.47656 0.967316,-3.36658 3.320752,-6.216 6.511077,-7.66903 1.52565,-0.71212 3.199331,-1.10227 4.883454,-1.12785 z"
            id="rect111-5" />
        <path style="fill:#999999;stroke-width:0.264583"
            d="m 73.378906,92.535156 c -8.072032,0.238435 -16.186044,4.143471 -20.745484,10.926574 -3.890208,5.61755 -4.658544,13.27174 -1.800552,19.50183 2.999641,6.76745 9.504814,11.58103 16.602397,13.33376 8.843073,2.24711 18.891569,0.0371 25.550794,-6.32261 1.38032,-1.3333 2.587945,-2.83919 3.640892,-4.44151 1.565104,0 3.130208,0 4.695317,0 1.95687,-1.95523 3.91408,-3.91013 5.87109,-5.86523 1.96091,1.95901 3.92204,3.9178 5.88281,5.87695 1.21665,-0.13495 2.56584,0.26696 3.67969,-0.33984 2.05664,-2.05534 4.11328,-4.11068 6.16992,-6.16602 2.166,2.16473 4.33213,4.32933 6.49805,6.49414 2.58789,0 5.17578,0 7.76367,0 1.33,-1.32493 2.65593,-2.65396 3.98438,-3.98047 1.32746,1.32684 2.65502,2.65357 3.98242,3.98047 2.58854,0 5.17708,0 7.76562,0 2.27135,-2.26966 4.54299,-4.53904 6.81446,-6.80859 2.27146,2.26955 4.5431,4.53893 6.81445,6.80859 2.68815,0 5.3763,0 8.06445,0 0,-7.23632 0,-14.47265 0,-21.70898 -26.05143,0 -52.10286,0 -78.154296,0 -3.818968,-5.764894 -10.148588,-9.669218 -16.932533,-10.838203 -2.024524,-0.37332 -4.090392,-0.514765 -6.147545,-0.450861 z m 0.763672,8.777344 c 4.449219,-0.0444 8.841896,2.43839 11.107446,6.19335 1.868376,2.92824 2.422861,6.68497 1.758602,9.96113 -0.991408,5.06343 -5.177364,9.35703 -10.269597,10.32232 -3.454563,0.72288 -7.33213,-0.14997 -10.194107,-2.34789 -3.649007,-2.68193 -5.679257,-7.30733 -5.28253,-11.80641 0.292929,-4.58642 3.113084,-8.93445 7.267363,-10.94253 1.652197,-0.84236 3.695282,-1.37286 5.612823,-1.37997 z"
            id="rect111" />
        <path style="fill:#000000;stroke-width:0.264583"
            d="m 126.89166,114.8363 c 0,2.9694 0,5.9388 0,8.9082 -3.46094,0 -6.92188,0 -10.38282,0 0,3.81381 0,7.62761 0,11.44141 3.46094,0 6.92188,0 10.38282,0 0,3.67057 0,7.34115 0,11.01172 3.81315,0 7.6263,0 11.43945,0 0,-3.67057 0,-7.34115 0,-11.01172 3.35612,0 6.71224,0 10.06836,0 0,-3.8138 0,-7.6276 0,-11.44141 -3.35612,0 -6.71224,0 -10.06836,0 0,-3.14583 0,-6.29166 0,-9.4375 -3.81315,0 -7.6263,0 -11.43945,0 0,0.17644 0,0.35287 0,0.5293 z"
            id="rect370-4-0" />
        <path style="fill:#999999;stroke-width:0.264583"
            d="m 125.84735,114.67854 v 9.4387 h -10.38231 v 10.38231 h 10.38231 v 11.01173 h 10.38231 v -11.01173 h 10.06812 v -10.38231 h -10.06812 v -9.4387 z"
            id="rect370-4" />
    </g>
</svg>
